<svg width="764" height="458" viewBox="0 0 764 458" fill="none" xmlns="http://www.w3.org/2000/svg">
<g clip-path="url(#clip0_186_183)">
<path d="M715.057 96C724.55 96 733.831 93.1849 741.724 87.9106C749.618 82.6363 755.77 75.1397 759.403 66.3688C763.036 57.598 763.987 47.9468 762.135 38.6357C760.282 29.3246 755.711 20.7718 748.998 14.0589C742.285 7.34597 733.732 2.77442 724.421 0.922328C715.11 -0.929762 705.459 0.0207977 696.688 3.6538C687.917 7.28681 680.421 13.4391 675.146 21.3327C669.872 29.2262 667.057 38.5065 667.057 48C667.071 60.726 672.133 72.9266 681.132 81.9253C690.13 90.9239 702.331 95.9856 715.057 96ZM715.057 2.00003C724.155 2.00003 733.048 4.69788 740.613 9.75242C748.178 14.807 754.074 21.9912 757.555 30.3966C761.037 38.802 761.948 48.0511 760.173 56.9742C758.398 65.8973 754.017 74.0937 747.584 80.5269C741.151 86.9602 732.954 91.3412 724.031 93.1161C715.108 94.8911 705.859 93.9801 697.453 90.4985C689.048 87.0168 681.864 81.1209 676.809 73.5563C671.755 65.9916 669.057 57.098 669.057 48C669.071 35.8043 673.922 24.1121 682.545 15.4884C691.169 6.86471 702.861 2.01385 715.057 2.00003Z" fill="#F2F2F2"/>
<path d="M389.057 68C393.804 68 398.444 66.5924 402.391 63.9553C406.337 61.3181 409.413 57.5698 411.23 53.1844C413.046 48.799 413.522 43.9734 412.596 39.3179C411.67 34.6623 409.384 30.3859 406.027 27.0294C402.671 23.673 398.395 21.3872 393.739 20.4612C389.083 19.5351 384.258 20.0104 379.872 21.8269C375.487 23.6434 371.739 26.7196 369.102 30.6663C366.464 34.6131 365.057 39.2533 365.057 44C365.064 50.363 367.595 56.4633 372.094 60.9626C376.594 65.4619 382.694 67.9928 389.057 68ZM389.057 22C393.408 22 397.662 23.2903 401.279 25.7077C404.897 28.1251 407.717 31.561 409.382 35.581C411.047 39.601 411.483 44.0244 410.634 48.292C409.785 52.5596 407.69 56.4796 404.613 59.5563C401.536 62.6331 397.616 64.7284 393.349 65.5773C389.081 66.4262 384.658 65.9905 380.638 64.3254C376.618 62.6602 373.182 59.8404 370.765 56.2225C368.347 52.6047 367.057 48.3512 367.057 44C367.063 38.1673 369.383 32.5753 373.508 28.4509C377.632 24.3266 383.224 22.0066 389.057 22Z" fill="#F2F2F2"/>
<path d="M220.057 185C225.397 185 230.617 183.416 235.057 180.45C239.497 177.483 242.958 173.266 245.002 168.332C247.045 163.399 247.58 157.97 246.538 152.733C245.496 147.495 242.925 142.684 239.149 138.908C235.373 135.132 230.562 132.561 225.324 131.519C220.087 130.477 214.658 131.012 209.724 133.055C204.791 135.099 200.574 138.559 197.607 143C194.64 147.44 193.057 152.66 193.057 158C193.065 165.158 195.912 172.021 200.974 177.083C206.036 182.145 212.899 184.992 220.057 185ZM220.057 133C225.001 133 229.835 134.466 233.946 137.213C238.057 139.96 241.262 143.865 243.154 148.433C245.046 153.001 245.541 158.028 244.577 162.877C243.612 167.727 241.231 172.181 237.735 175.678C234.238 179.174 229.784 181.555 224.934 182.52C220.085 183.484 215.058 182.989 210.49 181.097C205.922 179.205 202.017 176 199.27 171.889C196.523 167.778 195.057 162.945 195.057 158C195.064 151.372 197.701 145.017 202.387 140.331C207.074 135.644 213.429 133.007 220.057 133Z" fill="#F2F2F2"/>
<path d="M1 458H226C226.265 458 226.52 457.895 226.707 457.707C226.895 457.52 227 457.265 227 457C227 456.735 226.895 456.48 226.707 456.293C226.52 456.105 226.265 456 226 456H1C0.734787 456 0.480377 456.105 0.292847 456.293C0.105316 456.48 0 456.735 0 457C0 457.265 0.105316 457.52 0.292847 457.707C0.480377 457.895 0.734787 458 1 458Z" fill="#CCCCCC"/>
<path d="M122.14 153.247C108.575 153.247 97.5789 142.251 97.5789 128.686C97.5789 115.121 108.575 104.125 122.14 104.125C135.705 104.125 146.701 115.121 146.701 128.686C146.701 142.251 135.705 153.247 122.14 153.247Z" fill="#FFB8B8"/>
<path d="M119.592 420.343L131.2 424.285L151.933 381.386L134.8 375.567L119.592 420.343Z" fill="#FFB8B8"/>
<path d="M140.618 423.785L118.23 416.181L113.443 430.277L149.926 442.669C150.555 440.818 150.813 438.861 150.685 436.91C150.558 434.959 150.048 433.053 149.183 431.299C148.319 429.546 147.118 427.979 145.648 426.69C144.178 425.401 142.469 424.414 140.618 423.785Z" fill="#2F2E41"/>
<path d="M93.3629 444.575L105.607 445.19L113.808 398.255L95.7359 397.346L93.3629 444.575Z" fill="#FFB8B8"/>
<path d="M114.529 442.131L90.9148 440.944L90.1675 455.812L128.65 457.746C128.748 455.794 128.46 453.841 127.804 452C127.147 450.158 126.135 448.464 124.823 447.014C123.512 445.564 121.928 444.387 120.162 443.549C118.395 442.711 116.481 442.229 114.529 442.131Z" fill="#2F2E41"/>
<path d="M166.228 288.63C165.13 287.652 164.26 286.446 163.679 285.095C163.097 283.745 162.819 282.284 162.864 280.814C162.908 279.345 163.275 277.903 163.937 276.591C164.599 275.278 165.541 274.127 166.696 273.218L155.022 239.443L173.013 244.041L181.341 275.409C182.739 277.451 183.341 279.935 183.03 282.39C182.72 284.846 181.52 287.102 179.657 288.732C177.794 290.362 175.398 291.251 172.923 291.232C170.448 291.214 168.066 290.288 166.228 288.63Z" fill="#FFB8B8"/>
<path d="M94.507 430.424C94.6654 430.424 94.8237 430.415 94.9811 430.398L111.602 428.639C112.623 428.536 113.578 428.084 114.306 427.361C115.034 426.637 115.491 425.686 115.6 424.665L128.445 310.155L137.739 341.49L120.41 403.073C120.234 403.7 120.196 404.358 120.298 405.002C120.401 405.645 120.642 406.258 121.005 406.799C121.369 407.34 121.845 407.796 122.401 408.135C122.958 408.474 123.581 408.688 124.228 408.763L141.076 410.699C142.149 410.818 143.229 410.549 144.121 409.941C145.012 409.333 145.657 408.426 145.939 407.384L164.348 338.081C164.5 337.511 164.537 336.917 164.459 336.333L156.185 274.134L94.4714 279.083L90.009 425.786C89.9906 426.388 90.0933 426.988 90.3111 427.55C90.5289 428.112 90.8572 428.624 91.2767 429.057C91.6962 429.489 92.1983 429.833 92.7532 430.068C93.3081 430.303 93.9045 430.424 94.507 430.424V430.424Z" fill="#2F2E41"/>
<path d="M115.84 289.719C136.516 289.719 159.925 281.73 161.342 281.239L161.752 281.097L138.427 161.413L137.998 161.431C128.755 161.806 103.529 161.998 103.275 162L102.823 162.003L93.0999 267.622L91.3621 283.071L91.575 283.243C97.5227 288.052 106.396 289.719 115.84 289.719Z" fill="#186BD9"/>
<path d="M153.193 279.375L167.782 273.499L160.346 183.555C160.167 181.338 159.492 179.189 158.372 177.267C157.251 175.345 155.713 173.699 153.872 172.452L146.195 167.227C146.412 166.488 146.451 165.709 146.308 164.952C146.166 164.195 145.846 163.483 145.375 162.874C144.904 162.265 144.295 161.777 143.598 161.449C142.901 161.121 142.137 160.962 141.367 160.987L139.169 161.058C138.751 160.776 138.257 160.627 137.753 160.631C137.249 160.635 136.758 160.79 136.344 161.078C135.93 161.366 135.613 161.772 135.434 162.243C135.255 162.714 135.223 163.229 135.342 163.719L135.824 173.248L153.193 279.375Z" fill="#2F2E41"/>
<path d="M160.554 263.251L179.603 262.449L173.432 222.756L168.319 185.407C168.219 184.066 167.816 182.765 167.142 181.602C166.468 180.438 165.539 179.441 164.426 178.687C163.313 177.932 162.043 177.439 160.713 177.245C159.382 177.05 158.024 177.158 156.741 177.562C154.743 178.189 153.03 179.499 151.901 181.263C150.772 183.027 150.3 185.132 150.567 187.209L155.747 227.676L160.554 263.251Z" fill="#2F2E41"/>
<path d="M130.392 280.751L130.522 280.35C130.61 280.076 139.195 252.538 124.83 219.678L117.627 183.852L111.472 161.357C111.356 160.955 111.149 160.586 110.866 160.278C110.582 159.97 110.231 159.733 109.84 159.585C109.381 159.425 108.884 159.405 108.413 159.526C107.942 159.647 107.518 159.904 107.192 160.265C102.901 159.006 98.2884 159.467 94.3321 161.551L85.6874 166.105C83.7652 167.117 82.2333 168.739 81.3317 170.716C80.4302 172.692 80.2101 174.912 80.7058 177.028L92.5212 227.451L86.7775 274.548L130.392 280.751Z" fill="#2F2E41"/>
<path d="M117.812 261.338C116.351 261.496 114.872 261.333 113.481 260.858C112.089 260.384 110.819 259.61 109.759 258.591C108.699 257.573 107.875 256.334 107.346 254.963C106.816 253.591 106.594 252.12 106.694 250.654L79.9382 230.833L89.2908 226.399L118.142 241.261C120.595 241.593 122.841 242.813 124.454 244.69C126.067 246.568 126.935 248.971 126.895 251.446C126.854 253.921 125.907 256.295 124.233 258.118C122.559 259.941 120.274 261.087 117.812 261.338V261.338Z" fill="#FFB8B8"/>
<path d="M101.038 252.465L110.074 235.596L87.7874 220.928L98.6633 181.919C99.0989 180.357 99.2079 178.722 98.9833 177.116C98.7587 175.51 98.2055 173.968 97.3581 172.585C96.5107 171.203 95.3874 170.01 94.0583 169.081C92.7293 168.153 91.2229 167.508 89.6335 167.187C86.8246 166.627 83.9081 167.106 81.4253 168.534C78.9425 169.962 77.0622 172.242 76.1335 174.951L61.4587 218.087C61.1561 218.975 61.1393 219.937 61.4103 220.835C61.6814 221.734 62.2269 222.526 62.9704 223.099L101.038 252.465Z" fill="#2F2E41"/>
<path d="M120.402 133.895C123.346 134.278 125.567 131.266 126.597 128.481C127.627 125.696 128.412 122.455 130.972 120.95C134.469 118.895 138.944 121.367 142.943 120.689C147.459 119.923 150.396 115.137 150.626 110.562C150.856 105.986 149.036 101.586 147.249 97.368L146.625 102.61C146.709 100.833 146.335 99.065 145.54 97.4741C144.744 95.8831 143.554 94.5229 142.082 93.5234L142.886 101.216C142.715 100.154 142.336 99.1374 141.771 98.2229C141.206 97.3085 140.466 96.5147 139.593 95.887C138.721 95.2593 137.733 94.8101 136.686 94.5653C135.639 94.3204 134.554 94.2847 133.494 94.4601L133.62 99.0434C128.404 98.4231 123.142 97.802 117.91 98.2745C112.678 98.7471 107.409 100.402 103.444 103.848C97.5125 109.002 95.3462 117.489 96.0735 125.313C96.8008 133.138 100.031 140.488 103.397 147.589C104.244 149.375 105.415 151.391 107.379 151.619C109.144 151.823 110.759 150.348 111.307 148.658C111.73 146.925 111.713 145.113 111.259 143.387C110.763 140.75 110.138 138.054 110.604 135.412C111.071 132.769 112.972 130.158 115.636 129.834C118.3 129.51 121.026 132.555 119.745 134.913L120.402 133.895Z" fill="#2F2E41"/>
<path d="M441.747 403.577L451.308 399.552L457.866 351.624H545.206L552.315 399.356L560.869 403.633C561.278 403.837 561.606 404.174 561.8 404.589C561.994 405.003 562.042 405.471 561.937 405.916C561.832 406.361 561.58 406.758 561.221 407.042C560.862 407.326 560.418 407.48 559.96 407.48H442.535C442.066 407.48 441.612 407.318 441.249 407.021C440.886 406.724 440.637 406.311 440.544 405.851C440.451 405.392 440.52 404.914 440.74 404.5C440.959 404.085 441.315 403.759 441.747 403.577Z" fill="#E6E6E6"/>
<path d="M286.538 358H715.576C717.827 357.995 719.984 357.097 721.574 355.504C723.164 353.91 724.057 351.751 724.057 349.5V289H278.057V349.5C278.057 351.751 278.95 353.91 280.54 355.504C282.13 357.097 284.287 357.995 286.538 358Z" fill="#CCCCCC"/>
<path d="M277.608 317.594H724.448V58.7271C724.445 56.0104 723.365 53.4059 721.444 51.485C719.523 49.564 716.918 48.4835 714.201 48.4805H287.855C285.139 48.4835 282.534 49.5641 280.613 51.485C278.692 53.4059 277.612 56.0104 277.608 58.7271V317.594Z" fill="#3F3D56"/>
<path d="M304.296 298.805H697.76C699.855 298.803 701.863 297.97 703.344 296.489C704.825 295.008 705.658 293 705.66 290.906V75.1685C705.658 73.074 704.825 71.0661 703.344 69.5851C701.863 68.104 699.855 67.271 697.76 67.2686H304.296C302.202 67.271 300.194 68.104 298.713 69.5851C297.232 71.0661 296.399 73.074 296.397 75.1685V290.906C296.399 293 297.232 295.008 298.713 296.489C300.194 297.97 302.202 298.803 304.296 298.805Z" fill="white"/>
<path d="M308 407.98H689C689.265 407.98 689.52 407.875 689.707 407.688C689.895 407.5 690 407.246 690 406.98C690 406.715 689.895 406.461 689.707 406.273C689.52 406.086 689.265 405.98 689 405.98H308C307.735 405.98 307.48 406.086 307.293 406.273C307.105 406.461 307 406.715 307 406.98C307 407.246 307.105 407.5 307.293 407.688C307.48 407.875 307.735 407.98 308 407.98Z" fill="#CCCCCC"/>
<path d="M341.261 272H660.796C661.061 272 661.316 271.895 661.503 271.707C661.691 271.52 661.796 271.265 661.796 271V117.847C661.796 117.581 661.691 117.327 661.503 117.14C661.316 116.952 661.061 116.847 660.796 116.847C660.531 116.847 660.277 116.952 660.089 117.14C659.902 117.327 659.796 117.581 659.796 117.847V270H341.261C340.996 270 340.741 270.105 340.554 270.293C340.366 270.48 340.261 270.735 340.261 271C340.261 271.265 340.366 271.52 340.554 271.707C340.741 271.895 340.996 272 341.261 272Z" fill="#3F3D56"/>
<path d="M592.525 261H621.588C622.375 260.999 623.13 260.686 623.686 260.13C624.243 259.573 624.556 258.819 624.557 258.032V217.968C624.556 217.181 624.243 216.427 623.686 215.87C623.13 215.314 622.375 215.001 621.588 215H592.525C591.738 215.001 590.984 215.314 590.427 215.87C589.871 216.427 589.558 217.181 589.557 217.968V258.032C589.558 258.819 589.871 259.573 590.427 260.13C590.984 260.686 591.738 260.999 592.525 261Z" fill="#186BD9"/>
<path d="M539.525 261H568.588C569.375 260.999 570.13 260.686 570.686 260.13C571.243 259.573 571.556 258.819 571.557 258.032V179.968C571.556 179.181 571.243 178.427 570.686 177.87C570.13 177.314 569.375 177.001 568.588 177H539.525C538.738 177.001 537.984 177.314 537.427 177.87C536.871 178.427 536.558 179.181 536.557 179.968V258.032C536.558 258.819 536.871 259.573 537.427 260.13C537.984 260.686 538.738 260.999 539.525 261Z" fill="#186BD9"/>
<path d="M486.525 261H515.588C516.375 260.999 517.13 260.686 517.686 260.13C518.243 259.573 518.556 258.819 518.557 258.032V217.968C518.556 217.181 518.243 216.427 517.686 215.87C517.13 215.314 516.375 215.001 515.588 215H486.525C485.738 215.001 484.984 215.314 484.427 215.87C483.871 216.427 483.558 217.181 483.557 217.968V258.032C483.558 258.819 483.871 259.573 484.427 260.13C484.984 260.686 485.738 260.999 486.525 261Z" fill="#186BD9"/>
<path d="M433.525 261H462.588C463.357 261.017 464.102 260.728 464.658 260.197C465.215 259.665 465.538 258.935 465.557 258.166V164.834C465.538 164.065 465.215 163.335 464.658 162.804C464.102 162.273 463.357 161.984 462.588 162H433.525C432.756 161.984 432.012 162.273 431.456 162.804C430.899 163.335 430.576 164.065 430.557 164.834V258.166C430.576 258.935 430.899 259.665 431.456 260.197C432.012 260.728 432.756 261.017 433.525 261Z" fill="#186BD9"/>
<path d="M380.525 261H409.588C410.375 260.999 411.13 260.686 411.686 260.13C412.243 259.573 412.556 258.819 412.557 258.032V137.968C412.556 137.181 412.243 136.427 411.686 135.87C411.13 135.314 410.375 135.001 409.588 135H380.525C379.738 135.001 378.984 135.314 378.427 135.87C377.871 136.427 377.558 137.181 377.557 137.968V258.032C377.558 258.819 377.871 259.573 378.427 260.13C378.984 260.686 379.738 260.999 380.525 261Z" fill="#186BD9"/>
<path d="M607.057 203C603.743 203 601.057 200.314 601.057 197C601.057 193.686 603.743 191 607.057 191C610.371 191 613.057 193.686 613.057 197C613.057 200.314 610.371 203 607.057 203Z" fill="#3F3D56"/>
<path d="M554.057 164C550.743 164 548.057 161.314 548.057 158C548.057 154.686 550.743 152 554.057 152C557.371 152 560.057 154.686 560.057 158C560.057 161.314 557.371 164 554.057 164Z" fill="#3F3D56"/>
<path d="M501.057 203C497.743 203 495.057 200.314 495.057 197C495.057 193.686 497.743 191 501.057 191C504.371 191 507.057 193.686 507.057 197C507.057 200.314 504.371 203 501.057 203Z" fill="#3F3D56"/>
<path d="M448.057 145C444.743 145 442.057 142.314 442.057 139C442.057 135.686 444.743 133 448.057 133C451.371 133 454.057 135.686 454.057 139C454.057 142.314 451.371 145 448.057 145Z" fill="#3F3D56"/>
<path d="M395.057 123C391.743 123 389.057 120.314 389.057 117C389.057 113.686 391.743 111 395.057 111C398.371 111 401.057 113.686 401.057 117C401.057 120.314 398.371 123 395.057 123Z" fill="#3F3D56"/>
<path d="M500.931 198.344L554.057 158.552L606.457 197.8L607.657 196.2L554.057 156.053L501.183 195.656L448.642 138.158L448.431 138.072L395.431 116.718L394.683 118.573L447.472 139.842L500.931 198.344Z" fill="#3F3D56"/>
</g>
<defs>
<clipPath id="clip0_186_183">
<rect width="763.057" height="458" fill="white" transform="matrix(-1 0 0 1 763.057 0)"/>
</clipPath>
</defs>
</svg>
