<svg width="621" height="308" viewBox="0 0 621 308" fill="none" xmlns="http://www.w3.org/2000/svg">
<g clip-path="url(#clip0_65_1594)">
<path d="M145.442 29.0061C145.222 27.2962 144.774 25.6217 144.111 24.0245C144.027 23.7225 143.879 23.4409 143.676 23.1978C143.474 22.9547 143.222 22.7554 142.936 22.6126C142.554 22.5157 142.153 22.5114 141.769 22.5998L135.776 23.4934C135.274 23.5158 134.794 23.6976 134.408 24.0112C133.627 24.8111 134.394 26.0992 134.369 27.2028C134.341 28.4438 133.209 29.4511 131.982 29.7843C130.729 30.0309 129.437 30.0153 128.192 29.7385L119.813 28.4695C122.282 27.7017 124.48 26.2732 126.156 24.347C127.26 23.0739 127.849 20.6972 126.256 20.0943C125.782 19.9677 125.289 19.929 124.8 19.9804C121.004 20.0092 118.019 16.9201 114.466 15.6191C112.192 14.8402 109.723 14.7822 107.412 15.4535C105.1 16.1248 103.066 17.4908 101.598 19.3564L106.062 19.5661C106.482 19.5436 106.898 19.6518 107.251 19.8752C108.228 20.6585 107.011 22.163 107.147 23.3895C107.325 24.9831 109.496 25.3233 111.132 25.4845C112.769 25.6456 114.844 26.9415 114.056 28.3491C105.827 31.1103 97.4635 22.9514 88.8236 23.9558C86.6369 24.21 84.5715 25.047 82.4364 25.5734C69.3931 28.7888 55.9191 20.2098 42.596 22.0267C39.634 22.5187 36.7227 23.2668 33.8965 24.2621C32.0829 24.8423 30.1912 25.4692 28.8727 26.8147C27.5541 28.1602 27.0507 30.4612 28.2975 31.8681C24.8574 32.1441 21.3949 31.8234 18.0708 30.9207C18.9695 31.4077 19.7169 32.1217 20.2345 32.9876C20.752 33.8535 21.0207 34.8394 21.0124 35.8419C15.6408 36.6954 10.4107 38.2491 5.46298 40.4612C6.38475 41.9571 7.46169 43.3568 8.67686 44.6382L1.87373 48.8952C4.1704 49.4593 5.35543 52.5119 4.01788 54.4184C6.40068 53.3857 7.8792 50.7143 10.4267 50.1727C12.0957 49.8179 13.793 50.4831 15.3754 51.1081C16.9579 51.733 18.6972 52.3389 20.3363 51.8699C21.9754 51.4009 23.1859 49.3302 22.1458 48.0109C29.1518 46.0193 36.3916 44.9171 43.6856 44.7317C44.2483 44.6629 44.8189 44.7685 45.3164 45.0334C46.2653 45.6754 46.0143 47.0619 45.9622 48.187C45.91 49.3121 46.8085 50.7907 47.8408 50.2836C46.626 51.3095 47.662 53.2407 48.8257 54.3194C49.9894 55.3982 51.3919 56.8867 50.6776 58.2899C50.4912 58.6562 50.1753 58.9492 49.9959 59.3188C49.4665 60.4096 50.3045 61.6813 51.2937 62.4057C52.2829 63.1301 53.4948 63.6364 54.1815 64.6395C54.8682 65.6426 54.5544 67.3985 53.3248 67.5386L49.834 63.2146C48.639 64.4211 47.8192 65.9327 47.4696 67.5742C51.1727 70.5264 51.7248 76.5353 48.6194 80.0873C47.0324 81.9024 44.7768 83.0054 42.8079 84.4212C40.8389 85.837 39.0163 87.8531 39.0192 90.2367C39.0242 94.3549 38.6756 98.1808 40.2557 101.999C43.1695 109.039 46.5347 115.893 50.3314 122.521C51.3285 124.262 52.6173 126.169 54.6399 126.469C52.0887 120.404 49.7927 114.244 47.752 107.99C49.0847 107.995 50.6248 108.098 51.4051 109.151C52.0513 110.022 51.9113 111.207 52.1114 112.264C52.3662 113.289 52.7917 114.266 53.371 115.156L65.5605 136.348C66.571 138.105 67.7302 139.991 69.6637 140.702C70.9 141.157 72.3307 141.071 73.4684 141.726C74.3601 142.239 74.9602 143.151 75.8693 143.634C78.4398 145.001 82.0182 142.379 84.4201 144.012C85.1069 144.478 85.5434 145.22 86.1761 145.754C88.3941 147.627 92.0364 146.374 94.5975 147.772C96.2481 148.672 97.1024 150.473 97.9818 152.106C100.185 156.194 103.751 160.2 108.479 160.525C109.964 160.628 111.482 160.353 112.933 160.675C114.385 160.997 115.813 162.232 115.579 163.665C115.177 166.122 116.421 168.813 116.084 171.279C115.47 175.771 108.93 177.745 108.365 182.244C108.241 183.229 108.432 184.245 108.191 185.209C107.895 186.391 106.984 187.353 106.659 188.527C106.044 190.753 107.678 192.968 109.474 194.465C111.27 195.962 113.413 197.254 114.394 199.35C115.431 201.565 114.918 204.148 115.254 206.562C115.987 211.83 120.653 215.736 125.457 218.254C126.92 219.022 128.492 219.765 129.438 221.096C130.674 222.833 130.548 225.123 130.96 227.199C131.967 232.283 136.355 236.473 136.475 241.65C136.56 245.33 134.458 248.668 133.202 252.14C132.023 255.467 131.595 259.002 131.945 262.503C132.296 266.005 133.418 269.391 135.234 272.43C136.17 273.973 137.291 275.429 137.953 277.102C139.134 280.088 138.747 283.482 139.836 286.501C141.276 290.493 145.239 293.79 144.856 298.006C146.654 301.65 150.628 303.44 154.625 304.525L161.789 306.469C163.161 306.841 164.594 307.216 165.991 306.947C167.389 306.677 168.723 305.547 168.688 304.159C165.175 303.387 161.549 302.566 158.654 300.479C155.76 298.392 153.779 294.676 154.881 291.333C155.391 289.783 156.477 287.993 155.448 286.712C154.858 285.979 153.779 285.787 153.114 285.118C152.077 284.074 152.435 282.321 153.182 281.063C153.93 279.804 155.01 278.679 155.312 277.256C155.465 276.459 155.364 275.637 155.023 274.898C154.682 274.159 154.118 273.54 153.405 273.123C154.734 272.634 155.943 271.879 156.954 270.905C157.887 269.867 158.32 268.267 157.587 267.087C159.766 267.357 162.338 267.488 163.769 265.864C164.913 264.567 164.836 262.628 164.386 260.976C163.936 259.325 163.175 257.721 163.153 256.012C168.178 256.244 173.216 256.077 178.215 255.514C177.494 253.142 175.853 251.137 173.64 249.925C175.904 249.552 177.969 246.911 178.686 244.784C179.403 242.658 179.223 240.342 178.783 238.147C178.613 237.581 178.591 236.984 178.716 236.408C178.972 235.616 179.771 235.133 180.509 234.72L191.751 228.431C192.422 228.103 193.03 227.666 193.549 227.138C194.728 225.79 194.555 223.756 193.954 222.086C193.352 220.417 192.388 218.847 192.158 217.092C191.468 211.842 197.238 208.075 199.188 203.134C199.953 201.194 200.111 199.086 200.26 197.014C200.421 194.789 200.435 192.203 198.683 190.769C197.003 189.394 194.376 189.701 192.619 188.422C191.007 187.25 190.453 184.973 188.692 184.026C187.093 183.166 185.086 183.713 183.307 183.308C180.175 182.596 178.206 179.077 175.007 178.751C173.202 178.567 171.158 179.427 169.679 178.403C168.376 177.5 168.326 175.685 168.079 174.146C167.646 171.753 166.471 169.547 164.712 167.826C162.953 166.104 160.694 164.95 158.241 164.519C156.379 164.228 154.353 164.338 152.771 163.342C151.168 162.332 150.435 160.442 149.176 159.044C147.148 156.791 143.952 155.991 140.958 155.305L128.778 152.514C126.616 152.019 123.829 151.756 122.667 153.602C122.323 154.305 122.079 155.05 121.942 155.817C121.506 157.205 120.63 158.423 119.44 159.295C118.249 160.168 116.806 160.651 115.317 160.674C114.298 158.977 112.645 157.729 110.704 157.192C109.469 156.857 108.146 156.82 106.969 156.326C106.327 156.021 105.757 155.591 105.292 155.064C104.827 154.536 104.478 153.921 104.265 153.257C104.052 152.593 103.981 151.894 104.056 151.202C104.13 150.509 104.349 149.839 104.698 149.232C105.401 148.014 105.674 146.604 105.473 145.22C105.273 143.836 104.611 142.555 103.589 141.576C101.519 139.763 98.5222 139.325 95.7442 139.507C95.018 137.96 96.236 136.214 97.5479 135.09C98.8597 133.966 100.452 132.86 100.739 131.181C101.191 128.541 97.7349 126.535 95.1089 127.322C92.4829 128.11 90.8052 130.595 89.6954 133.044C89.0586 134.45 88.5171 135.93 87.5136 137.115C86.5101 138.3 84.895 139.148 83.3684 138.768C81.2072 138.23 80.3745 135.727 79.8979 133.603C79.2585 130.754 78.6154 127.865 78.7524 124.95C78.8894 122.036 79.9002 119.043 82.1071 117.071C85.7034 113.856 91.2157 114.171 96.0648 114.684C94.9202 113.426 95.2052 111.305 96.4321 110.121C97.0798 109.561 97.8578 109.163 98.6986 108.962C99.5395 108.76 100.418 108.762 101.258 108.966C102.719 109.263 104.034 110.03 104.993 111.144C106.37 112.781 106.76 114.992 107.8 116.851C108.84 118.709 111.181 120.295 113.099 119.298C114.755 118.436 115.02 116.199 114.61 114.414C114.199 112.629 113.325 110.894 113.476 109.071C113.764 105.591 117.467 103.497 120.734 102.064C124.001 100.631 127.742 98.7043 128.263 95.2506C128.281 94.5744 128.412 93.9055 128.652 93.2704C129.014 92.7095 129.518 92.2481 130.115 91.9303C139.652 85.7918 149.347 79.5783 160.244 76.2241C160.811 76.0496 160.877 76.2436 161.455 76.1068C162.264 75.6515 161.729 74.392 160.955 73.8846C160.18 73.3772 159.144 72.988 158.949 72.0985C158.805 71.4447 159.2 70.8026 159.304 70.1413C159.557 68.5162 157.564 67.0157 156.014 67.6654C155.14 66.536 156.873 65.2237 158.273 64.8481C162.478 63.7205 166.795 63.0334 171.149 62.7986C171.651 62.7207 172.166 62.8061 172.613 63.0414C173.344 63.5351 173.25 64.6673 172.731 65.3719C172.212 66.0765 171.406 66.5189 170.759 67.1151C170.053 67.785 169.549 68.6309 169.302 69.5605C169.055 70.49 169.075 71.4676 169.36 72.3865C171.632 73.5132 174.102 74.6731 176.619 74.2762C179.137 73.8792 181.374 71.1228 180.193 68.9213C179.093 66.8712 175.783 66.4089 175.216 64.162C174.552 61.5314 178.375 59.1918 177.516 56.6153C177.14 55.4867 175.987 54.8225 175.102 54.0077C174.057 53.0087 173.347 51.7248 173.064 50.3246C172.782 48.9244 172.941 47.4733 173.52 46.162C172.077 46.4093 170.595 46.3159 169.198 45.8896C167.8 45.4633 166.528 44.7166 165.489 43.7121C163.569 41.8222 162.038 38.841 159.31 38.9256C156.806 39.0032 154.646 41.8501 152.306 40.9815C151.73 40.7679 151.123 40.333 150.565 40.5878C150.382 40.7035 150.228 40.8582 150.115 41.0403C150.003 41.2223 149.934 41.4269 149.914 41.6386C149.317 44.4108 150.338 47.5694 148.785 49.965C147.096 52.5718 143.193 52.9332 141.146 55.2839C140.034 56.56 139.603 58.2794 138.581 59.6247C137.559 60.97 135.392 61.8254 134.169 60.653C134.772 59.4471 134.937 58.0779 134.638 56.7691C134.339 55.4604 133.594 54.2895 132.523 53.4479C131.387 52.725 130.162 52.144 128.876 51.7185C127.44 51.1259 126.074 50.3837 124.803 49.5048C124.165 49.13 123.648 48.5898 123.308 47.9446C123.039 47.1366 123.076 46.2614 123.412 45.4773C124.035 43.7421 125.132 42.2051 126.584 41.0324C128.037 39.8597 129.791 39.0957 131.656 38.823C133.287 38.6068 135.185 38.683 136.265 37.4721C136.836 36.8315 137.137 35.8628 137.966 35.6026C138.496 35.4988 139.047 35.5649 139.535 35.7909L145.62 37.8787C146.298 38.1775 147.046 38.298 147.787 38.2282C148.155 38.1799 148.491 37.9979 148.727 37.7187C148.963 37.4394 149.082 37.0836 149.06 36.7227C148.866 35.7376 147.311 35.265 147.454 34.2714C147.533 33.9494 147.711 33.6585 147.964 33.4369C150.162 31.1585 152.85 29.3816 155.835 28.2334C158.82 27.0852 162.027 26.594 165.228 26.7951C165.996 28.0247 164.779 29.4807 163.767 30.5303C162.756 31.58 161.942 33.4555 163.163 34.2634C163.664 34.5126 164.221 34.6349 164.784 34.6191C166.282 34.8168 167.738 35.2472 169.096 35.8941C171.199 36.7861 173.261 37.7621 175.282 38.822C175.105 37.5225 174.935 36.1534 175.442 34.9382C175.948 33.7231 177.386 32.77 178.64 33.2432C179.849 33.6993 180.468 35.2597 181.756 35.4026C183.474 35.5933 184.154 33.1191 183.438 31.5856C182.721 30.052 181.302 28.7678 181.184 27.0862C181.105 25.9517 181.55 24.5447 180.62 23.8577C180.29 23.6514 179.914 23.5231 179.523 23.4828L156.308 19.3189C154.93 19.0716 152.937 19.2611 152.875 20.6261C152.84 21.388 153.538 22.1417 153.228 22.8422C152.897 23.5899 151.813 23.5215 151.023 23.786C149.797 24.1963 149.18 25.6145 149.297 26.8722C149.512 28.122 150.007 29.3097 150.748 30.3503C149.239 29.7348 146.952 29.6216 145.442 29.0061Z" fill="#253145"/>
<path d="M126.933 9.79803C125.469 9.32582 123.891 9.30383 122.413 9.73502C120.936 10.1662 119.629 11.0297 118.671 12.2085C118.289 12.6991 117.967 13.3753 118.287 13.9065C118.745 14.668 119.914 14.3673 120.777 14.0948C122.044 13.6537 123.423 13.6216 124.71 14.0034C125.519 14.2742 126.243 14.7529 127.056 15.0135C127.451 15.1748 127.884 15.2281 128.309 15.1676C128.733 15.1072 129.133 14.9353 129.465 14.6704C130.024 14.1158 130.059 13.2537 130.061 12.477C130.1 12.2171 130.079 11.9521 129.999 11.7013C129.92 11.4505 129.784 11.2202 129.601 11.0272C129.276 10.8435 128.91 10.7381 128.535 10.7198C127.694 10.568 126.934 10.135 126.386 9.49536" fill="#253145"/>
<path d="M135.307 7.52644C134.979 7.50905 134.653 7.5741 134.358 7.71535C134.063 7.85659 133.811 8.06928 133.625 8.33295C133.439 8.59662 133.326 8.90241 133.296 9.22091C133.267 9.53942 133.322 9.85992 133.456 10.1516C134.462 10.4191 135.513 10.4859 136.547 10.348C137.062 10.27 137.543 10.0451 137.928 9.70159C138.312 9.35807 138.584 8.91133 138.709 8.41767C137.492 8.63344 136.237 8.39976 135.188 7.76221" fill="#253145"/>
<path d="M163.4 3.73232C160.661 4.29979 157.999 5.18055 155.472 6.3563C156.662 6.80252 157.674 7.60985 158.358 8.65931C159.042 9.70878 159.362 10.9449 159.27 12.1854C159.163 12.6617 159.175 13.156 159.305 13.6266C159.595 14.3144 160.439 14.5724 161.18 14.749C162.512 15.1441 163.903 15.3172 165.295 15.2608C165.991 15.2254 166.667 15.0213 167.262 14.6671C167.857 14.3129 168.352 13.8198 168.703 13.2323C168.905 12.6748 169.142 12.1298 169.413 11.6005C171.193 8.96218 176.471 12.1523 178.381 9.60233C179.054 8.70408 178.994 7.35196 179.871 6.64017C180.325 6.33006 180.85 6.13467 181.401 6.07157C185.239 5.32845 189.117 4.79035 193.015 4.4597C194.862 4.30306 197.271 3.6567 197.288 1.84989C190.331 0.518287 183.117 1.46404 176.765 4.54012C174.477 5.65665 171.449 8.00532 169.247 6.52506C168.423 5.97083 168.465 4.47842 167.33 3.8552C166.17 3.21803 164.633 3.47717 163.4 3.73232Z" fill="#253145"/>
<path d="M186.149 7.87875L189.414 8.4903C188.813 8.46436 188.213 8.56364 187.654 8.78154C187.096 8.99945 186.591 9.33095 186.174 9.75394C185.756 10.1769 185.436 10.6817 185.235 11.2345C185.034 11.7873 184.956 12.3755 185.006 12.9598C188.064 13.9555 191.399 12.9866 194.621 13.119C197.842 13.2513 201.589 15.494 201.036 18.5904C200.869 19.5266 200.313 20.4622 200.601 21.3698C200.803 22.0059 201.378 22.4573 201.702 23.0431C202.378 24.264 201.836 25.8081 200.98 26.9179C200.124 28.0277 198.974 28.9132 198.222 30.0925C196.353 33.0258 197.411 36.818 198.52 40.095C198.84 41.3332 199.433 42.4886 200.257 43.4812C201.902 45.1881 204.587 45.3365 206.991 45.3707C208.741 45.3956 210.745 45.3113 211.853 43.9901C213.299 42.2652 212.291 39.5739 213.244 37.5495C214.11 35.7109 216.311 34.9221 218.306 34.3627C221.96 33.3378 225.683 32.4665 229.138 30.9184C233.428 28.9961 237.439 26.0004 242.152 25.753C243.475 25.6836 244.83 25.8357 246.104 25.4826C247.378 25.1295 248.589 24.0563 248.494 22.7691C248.412 21.6694 247.458 20.8618 246.713 20.0327C245.967 19.2037 245.383 17.9288 246.069 17.0517L258.426 14.8028C257.552 12.4769 256.873 9.41362 258.886 7.89966C259.613 7.35341 260.585 7.13509 261.204 6.47471C262.259 5.34918 261.731 3.41033 260.515 2.45312C259.3 1.49592 257.655 1.27371 256.097 1.14759C250.68 0.70914 245.232 0.998859 239.804 1.2888C229.193 1.85558 218.582 2.42236 207.972 2.98913C205.836 3.10323 203.37 2.92892 201.41 3.63905C199.751 4.24025 198.571 5.34382 196.674 5.73155C193.172 6.44734 189.319 5.96297 186.149 7.87875Z" fill="#253145"/>
<path d="M244.635 33.0362C244.302 32.9849 243.961 33.0601 243.684 33.2463C243.5 33.4432 243.391 33.6952 243.374 33.9607C243.162 35.1324 243.412 36.3384 244.074 37.3373C244.411 37.8273 244.877 38.2203 245.423 38.4755C245.969 38.7307 246.575 38.8387 247.178 38.7884C248.649 38.6057 249.734 37.3831 251.086 36.7865C253.171 35.8678 262.021 34.4356 255.903 31.2128C253.794 30.1021 252.43 31.0826 250.767 31.814C248.874 32.7571 246.754 33.1797 244.635 33.0362Z" fill="#253145"/>
<path d="M298.273 6.05941C297.558 6.34399 296.96 6.85123 296.572 7.50193C296.393 7.83234 296.351 8.21703 296.455 8.57642C296.559 8.93581 296.8 9.24238 297.13 9.43272C297.397 9.52706 297.68 9.57081 297.964 9.56162L300.87 9.64624C302.105 9.68219 303.647 9.93844 303.977 11.098C304.223 11.9589 303.671 13.0653 304.335 13.6806C304.621 13.8961 304.964 14.0265 305.324 14.0564C306.281 14.296 307.281 14.3275 308.252 14.1485C310.367 13.5957 309.257 12.3379 309.924 11.218C310.945 9.50439 310.767 10.5417 312.564 9.55962C313.89 8.83432 315.605 7.51863 314.5 5.67006C312.578 2.45544 301.115 4.67841 298.273 6.05941Z" fill="#253145"/>
<path d="M355.638 4.44342L353.95 4.6629C350.144 5.15781 346.317 5.65727 342.651 6.77098C344.237 7.38231 345.901 7.78037 347.597 7.9542C348.531 7.99882 349.459 8.12735 350.369 8.33815C351.987 8.80782 353.618 10.0207 355.182 9.39937C356.152 9.01415 356.47 8.03012 357.273 7.50861C357.828 7.1485 359.933 6.56565 360.168 6.20218C362.072 3.2638 357.1 4.25335 355.638 4.44342Z" fill="#253145"/>
<path d="M363.042 11.9182C360.787 13.1466 358.694 14.6393 356.81 16.3629C356.017 17.0893 355.206 17.9927 355.277 19.051C355.372 20.4575 356.908 21.2733 358.24 21.8229L363.633 24.0488C364.288 23.1499 363.69 21.9089 363.014 21.0255C362.339 20.1421 361.536 19.12 361.836 18.0569C362.178 16.8437 363.696 16.4303 364.969 16.2213C367.043 15.8808 372.637 15.9081 371.968 12.6511C371.179 8.8134 365.125 10.7843 363.042 11.9182Z" fill="#253145"/>
<path d="M361.768 229.098C361.253 230.547 361.203 232.254 362.09 233.519C363.086 234.939 365.08 235.468 366.807 235.108C368.526 234.662 370.059 233.702 371.19 232.363C372.224 231.241 373.075 229.971 373.713 228.598C374.603 226.457 375.232 224.222 375.586 221.939L377.268 213.368C377.644 211.452 377.635 205.58 374.021 207.493C373.033 208.016 370.745 212.143 369.709 213.313C367.844 215.422 367.595 217.469 366.612 220.024C365.38 223.225 362.907 225.892 361.768 229.098Z" fill="#253145"/>
<path d="M552.536 272.957C551.355 272.508 550.208 271.976 549.105 271.365C547.996 274.329 547.405 277.453 547.357 280.608L555.449 276.147C556.667 275.476 558.047 274.544 558.022 273.181C558.033 273.013 557.997 272.845 557.919 272.695C557.84 272.545 557.722 272.418 557.575 272.328C557.396 272.258 557.2 272.235 557.008 272.263C555.809 272.361 554.715 272.936 553.583 273.336C552.451 273.736 551.128 273.947 550.09 273.354" fill="#253145"/>
<path d="M595.205 275.606C594.317 275.841 593.449 276.145 592.61 276.513C590.753 277.434 589.488 279.182 587.817 280.394C586.218 281.554 584.293 282.191 582.403 282.81C581.847 283.289 582.102 284.253 582.704 284.674C583.353 285.033 584.096 285.196 584.84 285.142C586.803 285.184 588.87 285.202 590.59 284.279C591.559 283.666 592.466 282.965 593.299 282.185C595.31 280.551 597.724 279.473 600.114 278.431C600.984 278.111 601.789 277.642 602.49 277.047C603.993 275.606 604.1 273.382 601.936 272.891C600.187 272.495 596.871 275.081 595.205 275.606Z" fill="#253145"/>
<path d="M614.069 263.604C614.167 262.612 614.033 261.612 613.676 260.678C613.319 259.745 612.749 258.903 612.009 258.216C611.985 260.2 611.922 262.314 610.775 263.955C609.958 265.125 608.678 265.914 607.783 267.028C606.888 268.142 606.489 269.907 607.537 270.884C608.207 271.381 609.023 271.655 609.865 271.666C611.953 271.906 614.369 272.039 615.834 270.569C616.634 269.767 617.024 268.579 617.999 267.989C618.362 267.841 618.686 267.615 618.948 267.328C619.351 266.704 618.712 265.883 617.993 265.658C617.273 265.433 616.48 265.539 615.757 265.326C615.034 265.112 614.371 264.32 614.742 263.678" fill="#253145"/>
<path d="M580.624 190.847C579.528 191.106 578.394 191.171 577.275 191.039C575.417 190.706 573.972 189.341 572.473 188.222C568.908 185.575 564.574 184.099 560.092 184.005C556.016 183.93 551.9 185.007 547.896 184.256C548.157 185.674 549.401 186.737 550.729 187.369C552.057 188.002 553.523 188.32 554.857 188.939C556.994 189.941 558.688 191.66 559.629 193.781C560.058 194.759 560.327 195.823 560.978 196.677C562.307 198.423 564.83 198.806 567.057 198.663C569.96 198.477 572.993 197.663 575.693 198.717C577.758 199.524 579.235 201.286 580.959 202.656C582.683 204.027 585.112 205.044 587.094 204.055C585.037 203.406 583.247 202.133 581.986 200.421C580.725 198.71 580.059 196.651 580.084 194.543C582.027 194.717 587.623 194.65 587.324 191.432C587.071 188.706 582.292 190.552 580.624 190.847Z" fill="#253145"/>
<path d="M555.188 213.031C555.534 211.187 557.423 209.558 556.836 207.774C556.431 206.54 554.963 205.93 553.634 205.9C552.304 205.869 550.997 206.255 549.668 206.292C548.802 206.247 547.935 206.259 547.071 206.328C544.432 206.751 542.803 209.446 540.315 210.405C538.802 210.988 537.103 210.876 535.53 211.279C531.959 212.194 529.697 215.482 527.198 218.133C523.162 222.397 517.906 225.382 512.111 226.703C510.08 227.161 507.898 227.454 506.283 228.739C504.145 230.441 503.616 233.357 503.139 236.006C501.819 243.322 499.805 250.503 497.124 257.457L505.601 258.512C507.212 258.712 508.882 258.909 510.436 258.443C511.565 258.028 512.634 257.474 513.618 256.792C517.395 254.508 521.623 253.021 526.025 252.429C528.246 252.132 530.573 252.078 532.656 252.882C534.739 253.686 536.525 255.51 536.697 257.687C537.598 257.414 538.559 257.384 539.475 257.601C540.392 257.819 541.231 258.275 541.902 258.921C543.228 260.239 544.096 261.93 544.383 263.755C544.605 264.886 544.827 266.24 545.903 266.714C546.781 267.101 547.788 266.684 548.749 266.61C552.008 266.355 554.71 270.059 557.914 269.421C561.351 268.737 562.199 263.723 565.551 262.718C567.477 262.141 570.177 262.843 571.1 261.098C571.914 259.559 570.294 257.784 570.463 256.062C570.671 253.941 573.239 253.041 575.218 252.136C582.043 249.016 585.289 240.068 581.988 233.468C580.033 229.558 576.182 226.48 575.474 222.184C574.929 218.879 576.269 215.025 574.109 212.423C573.01 211.1 571.148 210.369 570.495 208.79C570.084 207.796 570.251 206.668 570.03 205.618C569.809 204.568 568.87 203.47 567.806 203.742C564.717 204.532 563.723 213.83 562.067 216.089C559.551 219.524 554.392 217.262 555.188 213.031Z" fill="#253145"/>
<path d="M498.116 194.36C497.061 194.071 495.909 193.787 494.897 194.199C493.886 194.612 493.294 196.059 494.105 196.776C500.455 196.535 506.844 196.296 513.139 197.136C520.392 198.105 527.568 200.503 534.855 199.797C530.694 198.601 526.464 197.644 522.188 196.932L515.057 195.605C513.144 195.214 511.21 194.923 509.266 194.732C505.197 194.405 502.116 195.453 498.116 194.36Z" fill="#253145"/>
<path d="M504.492 172.808C503.965 172.765 503.312 172.728 503.039 173.17C502.778 173.592 503.076 174.149 502.935 174.623C502.743 175.269 501.874 175.434 501.19 175.346C500.505 175.258 499.765 175.048 499.159 175.369C498.851 175.574 498.619 175.87 498.499 176.214C498.379 176.558 498.376 176.93 498.491 177.275C498.739 177.96 499.139 178.583 499.664 179.099C500.56 180.2 501.581 181.199 502.707 182.077C504.888 183.647 507.844 184.403 509.217 186.682C509.41 187.124 509.708 187.515 510.086 187.823C510.745 188.23 511.606 187.92 512.317 187.604L514.808 186.495C515.257 186.338 515.658 186.072 515.973 185.724C516.543 184.971 516.194 183.902 515.717 183.091C515.241 182.281 514.63 181.442 514.733 180.513C514.917 178.856 517.104 178.222 518.004 176.805C518.911 175.376 518.323 173.535 518.429 171.858C518.553 169.897 519.819 167.347 517.786 165.882C516.059 164.637 514.406 165.787 513.163 167.162C510.543 170.06 509.303 173.2 504.492 172.808Z" fill="#253145"/>
<path d="M519.634 143.511C520.483 145.098 522.255 146.045 523.18 147.59C524.184 149.264 524.068 151.428 525.156 153.051C526.273 154.716 528.524 155.601 529.149 157.495C529.832 159.563 528.276 162.076 529.513 163.883C529.744 164.178 530.035 164.424 530.368 164.604C530.702 164.784 531.07 164.894 531.449 164.928C531.829 164.962 532.211 164.919 532.573 164.801C532.934 164.683 533.267 164.494 533.549 164.245C534.072 163.69 534.352 162.959 534.33 162.207C534.308 161.455 533.985 160.742 533.431 160.219C532.698 159.567 531.645 159.286 531.033 158.524C530.715 158.085 530.503 157.581 530.413 157.05C530.081 155.519 530.136 153.932 530.573 152.425C530.737 152.043 530.779 151.621 530.694 151.215C530.419 150.434 529.334 150.379 528.573 150.017C526.844 149.194 526.888 146.815 527.192 144.963C526.99 146.196 522.484 144.099 522.013 143.4C521.076 142.013 521.589 139.336 521.405 137.802C519.379 138.753 518.596 141.572 519.634 143.511Z" fill="#253145"/>
<path d="M474.204 167.921C473.372 167.013 472.12 166.064 471.004 166.611C470.153 167.029 469.918 168.176 470.251 169.046C470.656 169.891 471.281 170.617 472.064 171.154C474.386 173.023 476.888 174.709 478.914 176.88C482.539 180.767 484.457 186.011 488.4 189.591C489.193 190.421 490.243 190.975 491.39 191.168C492.539 191.272 493.831 190.555 493.964 189.437C494.074 188.516 493.416 187.692 492.773 187.009C491.241 185.384 489.564 183.889 488.118 182.191C487.45 181.538 487.031 180.683 486.929 179.767C486.923 178.853 487.779 177.896 488.688 178.122C487.583 177.847 486.764 176.052 485.142 175.715C483.787 175.433 483.458 176.251 481.845 175.576C478.768 174.29 476.357 170.272 474.204 167.921Z" fill="#253145"/>
<path d="M546.599 79.5462C545.716 79.2905 544.849 78.9883 544 78.641C541.715 77.9725 538.69 79.6095 538.993 81.9156C539.194 83.4478 540.656 84.4808 541.463 85.8099C542.66 87.7809 542.338 90.2808 541.706 92.488C541.551 93.1715 541.256 93.8176 540.84 94.3881C540.258 94.9904 539.562 95.4778 538.791 95.8237C535.703 97.5101 532.98 99.7633 530.771 102.459C530.531 102.708 530.364 103.015 530.286 103.348C530.177 104.126 530.979 104.694 531.433 105.343C532.44 106.786 531.71 108.727 531.808 110.47C531.792 110.716 531.841 110.962 531.951 111.185C532.06 111.407 532.226 111.599 532.433 111.741C533.041 112.042 533.762 111.531 534.092 110.949C535.187 109.019 534.366 105.92 536.418 104.989C536.806 104.813 537.277 104.739 537.536 104.406C537.947 103.879 537.551 103.099 537.76 102.469C538.073 101.524 539.401 101.481 540.419 101.523C542.174 101.595 543.928 101.367 545.603 100.851C546.26 100.698 546.856 100.362 547.319 99.8824C547.933 99.1366 547.88 98.0762 547.758 97.128C547.148 92.4008 545.616 87.8318 543.243 83.6676C545.045 83.8919 547.005 84.0862 548.561 83.171C549.432 82.6586 550.477 81.1261 550.046 80.083C549.365 78.4335 548.13 79.8219 546.599 79.5462Z" fill="#253145"/>
<path d="M315.57 105.545C315.785 106.672 315.996 107.859 315.616 108.944C315.236 110.03 314.043 110.937 312.917 110.604C312.043 110.346 311.539 109.49 310.919 108.837C307.472 105.207 299.685 107.309 297.558 102.817C296.689 100.984 297.283 98.7885 296.691 96.8535C296.318 95.7352 295.574 94.7698 294.576 94.1088C293.578 93.4478 292.383 93.1287 291.178 93.2016C290.079 93.3563 289.009 93.6674 288.003 94.125C281.261 96.7554 274.184 98.4799 266.967 99.2512C265.596 99.3327 264.239 99.5732 262.926 99.9678C259.962 101.015 257.935 103.692 256.491 106.424C255.048 109.156 253.982 112.113 252.048 114.54C250.016 117.091 247.169 118.877 244.514 120.809C243.491 121.451 242.639 122.321 242.028 123.346C241.452 124.497 241.483 125.836 241.526 127.115L242.055 142.657C242.123 144.656 242.209 146.726 243.126 148.515C244.27 150.749 246.533 152.212 248.103 154.185C249.704 156.213 250.537 158.719 250.461 161.278C250.427 162.306 250.321 163.523 251.142 164.169C251.642 164.485 252.227 164.65 252.823 164.641L274.394 166.361C278.188 166.664 282.393 167.162 284.868 169.979C286.036 171.309 286.974 173.221 288.764 173.364C289.533 173.425 290.28 173.117 291.049 173.058C292.987 172.909 294.689 174.342 295.762 175.922C297.387 178.329 298.123 181.203 297.849 184.074C297.671 185.875 297.097 187.627 296.972 189.432C296.495 196.303 302.467 202.273 302.577 209.158C302.641 213.208 300.665 216.992 298.739 220.582C301.839 225.165 299.292 231.268 300.523 236.626C301.691 241.709 306.036 245.688 307.116 250.79C307.61 253.125 307.636 255.999 309.748 257.202C310.675 257.643 311.703 257.843 312.733 257.785C318.944 257.856 325.086 256.494 330.656 253.809C333.271 252.545 335.981 250.658 336.439 247.851C336.809 245.586 335.633 243.053 336.834 241.081C338.249 238.756 341.87 238.941 343.951 237.153C347.327 234.254 344.701 228.724 346.072 224.548C347.304 220.794 351.535 218.799 353.634 215.43C354.46 213.981 355.054 212.417 355.394 210.793C356.357 206.912 356.959 202.954 357.19 198.968C357.248 196.545 357.433 194.128 357.745 191.724C360.018 178.039 373.908 168.875 378.427 155.728C378.859 154.473 379.062 152.801 377.917 152.09C377.237 151.774 376.467 151.695 375.734 151.867L365.789 153.089C364.554 153.241 363.244 153.383 362.11 152.883C360.977 152.383 360.165 150.985 360.767 149.922C362.459 146.941 358.988 143.173 357.447 140.118C353.298 131.891 348.354 124.068 342.684 116.754C342.321 116.377 342.094 115.896 342.037 115.382L344.86 115.474C343.91 112.142 342.341 108.497 339.021 107.278C337.15 106.591 335.077 106.829 333.08 106.935C327.361 107.239 321.23 106.398 315.57 105.545Z" fill="#253145"/>
<path d="M333.152 30.4691C334.647 32.0179 336.322 33.6601 338.488 33.93C342.312 34.4069 345.065 30.5525 346.819 27.2046C346.883 28.0581 347.286 28.8533 347.943 29.4211C348.6 29.9888 349.458 30.2843 350.335 30.2448C351.279 30.09 352.181 29.7467 352.983 29.2364C360.564 25.2007 369.054 23.0624 377.689 23.0136C377.607 22.3761 377.77 21.7312 378.146 21.2035C378.523 20.6757 379.087 20.3024 379.729 20.1557C381.485 19.8164 383.065 21.2958 383.911 22.8325C384.756 24.3691 385.283 26.1503 386.627 27.3005C387.972 28.4508 390.577 28.4007 391.11 26.735C391.622 25.1359 389.914 23.7722 388.494 22.8294C387.075 21.8866 385.579 20.1417 386.537 18.7504C393.794 17.1852 401.096 15.6141 408.521 15.303C409.785 15.3458 411.045 15.1344 412.221 14.6818C413.354 14.1403 414.255 12.9112 413.952 11.7184C412.331 12.0896 410.634 11.9821 409.078 11.4097C407.521 10.8373 406.175 9.82584 405.211 8.50437C415.513 7.67589 426.471 6.96973 435.597 11.6938C436.69 13.9858 431.105 15.8928 432.597 17.9601C433.073 18.6195 434.028 18.6968 434.855 18.7118C441.199 18.8266 447.58 18.9391 453.854 18.0057C456.147 17.6645 458.463 17.183 460.764 17.4596C464.597 17.9203 467.873 20.413 471.644 21.2257C473.179 21.5564 474.9 21.5676 476.195 20.6976C477.489 19.8275 478.047 17.8464 476.988 16.7153C480.542 13.3238 486.434 14.1643 491.117 15.788C495.8 17.4118 500.236 20.0303 505.194 20.3922C508.749 20.6517 512.354 19.7197 515.867 20.3121C518.074 20.6844 520.128 21.6415 522.285 22.2295C526.365 23.3417 530.683 23.1069 534.92 23.1605C545.73 23.3024 556.421 25.373 566.463 29.2698C567.77 29.6845 568.966 30.3738 569.969 31.2892C570.903 32.2646 571.378 33.7804 570.749 34.9664L560.37 33.4883C561.346 35.3646 563.876 35.6843 565.93 36.3316C567.985 36.9789 570.113 39.1902 568.877 40.9166C566.651 40.2258 564.632 42.395 563.505 44.3909C562.379 46.3867 561.006 48.777 558.673 48.8986C556.584 49.0075 554.058 47.2738 552.695 48.8217C554.575 51.1347 556.183 53.6448 557.492 56.3056C558.835 59.0371 559.79 62.479 557.97 64.9366C557.683 65.3753 557.249 65.7033 556.742 65.8641C555.256 66.2305 554.293 64.4599 553.229 63.3868C551.888 62.0344 549.859 61.6514 548.042 61.0172C546.225 60.383 544.311 59.1353 544.171 57.2591C544.083 56.0918 544.716 55.0066 545.183 53.9277C545.968 52.1092 546.312 50.1393 546.189 48.1709C546.088 46.5873 545.634 44.94 544.468 43.8336C543.302 42.7272 541.288 42.3762 540.034 43.3896C539.449 43.8624 538.98 44.6187 538.221 44.647C536.879 44.697 535.851 42.4181 534.772 43.196C534.897 44.0249 534.72 44.8708 534.271 45.5859C531.049 48.3152 526.102 47.1606 521.95 48.1247C519.975 48.6753 518.085 49.4797 516.328 50.5167C515.67 50.7905 515.111 51.2477 514.72 51.8308C514.201 52.8122 514.771 54.0692 515.684 54.7217C516.652 55.3007 517.74 55.6628 518.87 55.7818C523.931 56.716 529.064 58.162 533.057 61.3301C537.051 64.4982 539.666 69.7353 538.398 74.6017L528.425 65.3075C528.8 69.2099 529.012 73.1231 529.06 77.0471C529.124 77.8132 529.015 78.5839 528.742 79.3052C528.029 80.8367 526.1 81.3521 524.409 81.6902C523.939 81.7773 523.493 81.9602 523.101 82.2271C522.708 82.4939 522.378 82.8387 522.132 83.2386C521.885 83.6386 521.729 84.0847 521.672 84.5477C521.615 85.0108 521.66 85.4801 521.802 85.9251C522.401 87.8323 523.897 89.3193 525.266 90.801C526.636 92.2826 527.983 93.9666 528.161 95.9539C528.339 97.9412 526.798 100.181 524.756 100.043C523.208 99.9383 522.061 98.5877 521.401 97.2191C520.742 95.8505 520.351 94.3259 519.36 93.163C516.36 89.6433 509.613 91.1513 506.926 87.3989C506.24 88.157 505.763 89.0733 505.542 90.0608C505.321 91.0484 505.363 92.0743 505.663 93.0414C506.915 92.2778 508.628 92.9873 509.567 94.0967C510.507 95.2061 510.949 96.6285 511.687 97.8746C512.682 99.556 514.266 101.047 514.403 102.984C514.366 103.716 514.378 104.45 514.439 105.181C514.686 106.355 515.703 107.197 516.408 108.178C518.048 110.461 517.964 113.597 516.903 116.187C515.842 118.777 513.939 120.941 512.054 123.039C508.761 126.704 505.4 130.347 501.497 133.39C500.384 134.259 499.195 135.113 498.501 136.327C497.807 137.541 497.77 139.245 498.834 140.169C498.072 140.206 496.705 140.571 495.943 140.608C495.677 137.629 495.622 134.635 495.776 131.648C492.77 130.24 489.528 134.009 489.914 137.239C490.299 140.468 492.693 143.059 494.397 145.853C495.643 147.896 496.569 150.279 496.15 152.622C495.731 154.964 493.584 157.125 491.153 156.919C487.288 156.59 485.675 151.181 481.847 150.562C481.51 150.485 481.155 150.519 480.84 150.66C480.271 150.964 480.172 151.705 480.139 152.336C479.98 155.433 479.842 158.653 481.08 161.508C482.891 165.685 487.576 169.193 486.589 173.627C481.293 171.227 478.543 165.437 477.297 159.876C476.052 154.314 475.848 148.475 473.611 143.218C471.907 145.344 468.33 143.586 466.777 141.356C465.304 139.241 464.398 136.794 462.97 134.651C461.541 132.508 459.351 130.589 456.73 130.471C453.982 130.347 451.598 132.185 449.5 133.921C447.776 135.349 446.005 136.833 444.996 138.807C443.527 141.679 443.908 145.065 443.834 148.272C443.755 151.739 442.998 155.397 440.571 157.935C438.144 160.473 433.668 161.357 430.995 159.07C429.6 157.876 428.925 156.091 428.325 154.379C425.429 146.123 423.019 137.712 421.106 129.188C420.655 131.133 418.9 133.641 417.226 132.495C416.85 132.187 416.546 131.805 416.334 131.373C413.214 126.214 407.432 123.119 401.589 121.263C395.745 119.408 389.596 118.542 383.818 116.503C380.579 115.359 377.487 113.857 374.601 112.027C373.864 113.081 373.433 114.309 373.354 115.582C373.275 116.854 373.55 118.124 374.151 119.256C375.432 121.468 378.332 122.748 380.816 121.975C382.1 121.575 383.185 120.707 384.459 120.278C385.733 119.849 387.442 120.06 387.997 121.256C388.53 122.4 387.723 123.785 388.121 124.98C388.728 126.8 391.545 126.94 392.529 128.596C393.26 129.828 392.656 131.465 391.609 132.459C390.561 133.454 389.165 133.999 387.887 134.691C383.741 136.937 380.79 140.771 377.165 143.754C373.541 146.737 368.429 148.914 364.114 147.001C365.147 141.924 358.944 138.196 357.807 133.141C357.433 131.478 357.629 129.71 357.094 128.089C356.319 125.742 354.184 124.128 352.432 122.349C350.308 120.168 348.653 117.594 347.567 114.779C346.48 111.964 345.984 108.965 346.106 105.959C346.202 103.87 346.598 101.747 346.111 99.7109C345.625 97.6748 343.897 95.704 341.753 95.7963C336.857 96.007 330.689 96.3619 328.124 92.2947C327.209 90.8431 326.811 88.7171 328.138 87.6049C329.074 86.8204 330.454 86.8943 331.682 87.012L342.712 88.0695C345.291 88.3169 348.08 88.521 350.295 87.2065C352.51 85.8921 353.473 82.403 351.424 80.8566C349.927 79.7266 347.243 79.7879 346.81 77.9913C346.448 76.4951 348.149 74.7974 347.232 73.547C346.575 72.6504 345.095 72.8992 344.198 73.5713C343.301 74.2434 342.65 75.2263 341.646 75.7352C339.885 76.628 337.782 75.7783 335.889 75.2009C333.996 74.6235 331.457 74.5744 330.537 76.2885C329.508 78.2055 331.444 80.7175 330.423 82.6384C329.073 85.1781 324.51 83.7324 322.615 85.9169C320.44 88.4237 324.087 92.1616 323.352 95.364C322.416 95.8154 321.377 96.0227 320.335 95.9656C319.293 95.9086 318.284 95.5891 317.407 95.0385C316.545 94.4664 315.857 93.6771 315.419 92.7544C314.98 91.8318 314.807 90.8103 314.916 89.7987C315.099 88.3581 315.871 86.8875 315.356 85.5262C314.939 84.4255 313.806 83.7702 312.752 83.2026L302.037 77.4299C301.041 79.2291 302.297 81.4596 303.869 82.811C305.442 84.1624 307.412 85.1802 308.444 86.9587C309.097 88.191 309.242 89.6199 308.85 90.9539C308.458 92.2879 307.559 93.4262 306.336 94.1364C306.182 94.2395 306.008 94.309 305.824 94.3402C305.641 94.3714 305.453 94.3635 305.273 94.317C305.102 94.2191 304.953 94.0887 304.835 93.9336C304.716 93.7785 304.631 93.6018 304.585 93.414C302.697 88.697 299.862 84.0464 295.324 81.5823C290.786 79.1183 284.262 79.6249 281.281 83.7757C280.573 84.7616 280.098 85.8854 279.481 86.9277C276.203 92.4656 269.184 95.0879 262.629 94.9166C261.988 94.9512 261.35 94.8051 260.792 94.4958C259.733 93.7828 259.782 92.2697 259.946 91.0249L260.638 85.7424C260.777 84.6817 260.979 83.5092 261.841 82.847C263.056 81.9136 264.807 82.5026 266.354 82.4809C267.526 82.4275 268.652 82.0242 269.582 81.3258C270.511 80.6275 271.197 79.6677 271.548 78.5767C271.862 77.475 271.861 76.311 271.546 75.2103C271.23 74.1096 270.613 73.1138 269.759 72.3303C269.051 71.6815 268.1 70.8665 268.476 69.9918C268.625 69.7499 268.827 69.5428 269.068 69.3851C269.308 69.2274 269.581 69.1229 269.868 69.079C272.646 68.2928 275.582 68.0867 278.314 67.1591C281.046 66.2315 283.697 64.3336 284.347 61.586C284.546 60.7439 284.637 59.7239 285.413 59.3064C285.803 59.1462 286.221 59.0629 286.644 59.0615C288.125 58.8561 289.474 58.118 290.425 56.9923C291.377 55.8666 291.862 54.4349 291.784 52.9792C293.094 52.0877 294.928 52.7435 296.194 53.6916C297.459 54.6398 298.576 55.8925 300.117 56.3012C302.988 57.063 305.766 54.585 308.742 54.5735C309.993 54.5687 311.289 54.9999 312.467 54.5864C313.661 54.1672 314.375 53.0092 315.291 52.1537C316.208 51.2981 317.816 50.7763 318.662 51.6979L317.946 46.4978C319.396 46.855 320.908 46.9055 322.381 46.6461C323.854 46.3867 325.253 45.8232 326.484 44.9936L317.177 41.9279C316.852 41.849 316.553 41.6932 316.306 41.4743C315.63 40.764 316.303 39.6571 316.854 38.8496C318.173 36.918 318.397 33.7362 316.232 32.7745C314.755 32.1181 313.058 32.906 311.638 33.6769L304.84 37.3694C304.623 38.6282 306.202 39.3416 307.18 40.1895C307.771 40.7025 308.19 41.3781 308.38 42.1274C308.571 42.8768 308.524 43.665 308.246 44.3885C307.969 45.1119 307.473 45.7367 306.824 46.1809C306.176 46.6251 305.405 46.8679 304.613 46.8774C305.06 47.4443 305.37 48.1021 305.521 48.802C305.671 49.5019 305.658 50.226 305.483 50.9207L300.911 51.2412C300.397 51.3418 299.864 51.2404 299.428 50.9591C298.939 50.5359 299.006 49.7942 298.894 49.1665C298.621 47.6514 297.1 46.5896 295.547 46.3173C293.993 46.045 292.403 46.394 290.865 46.7386C290.211 46.9677 289.494 46.9516 288.853 46.6934C288.485 46.4604 288.205 46.1165 288.057 45.7141C287.384 44.1204 288.016 42.2471 289.101 40.8842C290.185 39.5213 291.669 38.525 293.002 37.3904C296.189 34.6671 298.532 31.1302 299.766 27.1791C302.284 26.1514 304.891 24.755 307.409 23.7273C311.291 21.8127 315.643 20.991 319.976 21.3547L328.5 21.5134C331.024 21.5604 333.615 21.6206 335.948 22.5582C338.281 23.4958 340.33 25.5237 340.489 27.9785C340.537 28.2564 340.512 28.5418 340.416 28.8079C340.32 29.0739 340.157 29.312 339.941 29.4997C339.611 29.6749 339.238 29.7569 338.863 29.7364C336.509 29.817 335.505 30.3885 333.152 30.4691Z" fill="#253145"/>
<path d="M265.188 56.503C265.521 56.1958 265.761 55.8051 265.882 55.3738C266.002 54.9425 265.998 54.4873 265.87 54.0583C265.06 53.7536 264.179 53.6753 263.325 53.8324C262.472 53.9894 261.68 54.3756 261.039 54.9473C260.533 55.4451 260.098 56.0057 259.743 56.6147C258.621 58.3956 257.629 60.5228 258.276 62.5134C258.329 62.7305 258.426 62.9351 258.561 63.1153C258.696 63.2954 258.866 63.4474 259.062 63.5624C259.353 63.6762 259.667 63.724 259.979 63.7024C261.213 63.7008 262.446 63.6269 263.671 63.481C264.423 63.3913 265.297 63.1843 265.588 62.5024C265.971 61.6059 265.047 60.5914 265.318 59.6569C265.495 59.2391 265.764 58.8639 266.106 58.5577C266.276 58.4035 266.406 58.213 266.487 58.0012C266.568 57.7894 266.597 57.5622 266.572 57.3377C266.463 56.8992 265.775 56.6505 265.526 57.0314" fill="#253145"/>
<path d="M271.593 48.4188C270.498 48.1736 269.368 48.1044 268.249 48.2141C268.001 48.2069 267.756 48.2613 267.536 48.372C267.322 48.5252 267.168 48.7433 267.096 48.9918C266.859 49.7311 266.916 50.53 267.257 51.2294C267.597 51.9288 268.195 52.4774 268.932 52.7658C269.334 52.8559 269.719 53.0066 270.073 53.2126C271.018 53.928 270.414 55.3901 270.592 56.544C270.792 57.8396 272.078 58.9271 271.841 60.2172C271.654 61.2335 270.54 62.0383 270.718 63.0558C270.905 64.1214 272.292 64.4417 273.398 64.527C274.039 64.6364 274.699 64.5627 275.298 64.3148C275.899 63.9147 276.326 63.3121 276.498 62.6232C276.952 61.3097 277.144 59.9237 277.062 58.5404C277.058 57.9113 276.896 57.2927 276.592 56.7384C276.259 56.2992 275.89 55.8872 275.489 55.5065C273.372 53.1043 275.606 49.5211 271.593 48.4188Z" fill="#253145"/>
<path opacity="0.8" d="M550.088 236.598C550.088 236.598 387.865 145.806 317.976 163.009C317.976 163.009 169.88 178.539 152.688 212.706C152.688 212.706 105.74 69.3491 88.5828 64.5706" stroke="#3CD458" stroke-width="2" stroke-miterlimit="10"/>
<path opacity="0.8" d="M152.688 212.705C179.964 141.983 425.202 63.6147 425.202 63.6147C390.381 72.2161 317.976 163.008 317.976 163.008C317.976 163.008 165.085 54.5355 88.5827 64.5705C88.5827 64.5705 425.437 75.3222 550.088 236.598" stroke="#3CD458" stroke-width="2" stroke-miterlimit="10"/>
<path d="M88.5766 71.4994C92.5033 71.4994 95.6893 68.3972 95.6926 64.5705C95.6959 60.7438 92.5154 57.6416 88.5887 57.6416C84.662 57.6416 81.4761 60.7438 81.4727 64.5705C81.4694 68.3972 84.6499 71.4994 88.5766 71.4994Z" fill="#3CD458"/>
<path d="M152.682 219.634C156.609 219.634 159.795 216.532 159.798 212.705C159.801 208.879 156.621 205.776 152.694 205.776C148.767 205.776 145.582 208.879 145.578 212.705C145.575 216.532 148.755 219.634 152.682 219.634Z" fill="#3CD458"/>
<path d="M425.196 70.5436C429.123 70.5436 432.309 67.4414 432.312 63.6147C432.316 59.788 429.135 56.6858 425.208 56.6858C421.282 56.6858 418.096 59.788 418.092 63.6147C418.089 67.4414 421.27 70.5436 425.196 70.5436Z" fill="#3CD458"/>
<path d="M550.082 243.527C554.009 243.527 557.195 240.425 557.198 236.598C557.202 232.772 554.021 229.669 550.094 229.669C546.168 229.669 542.982 232.772 542.978 236.598C542.975 240.425 546.155 243.527 550.082 243.527Z" fill="#3CD458"/>
<path d="M317.97 169.937C321.897 169.937 325.083 166.835 325.086 163.008C325.09 159.182 321.909 156.08 317.982 156.08C314.056 156.08 310.87 159.182 310.866 163.008C310.863 166.835 314.043 169.937 317.97 169.937Z" fill="#3CD458"/>
</g>
<defs>
<clipPath id="clip0_65_1594">
<rect width="619.269" height="308" fill="white" transform="matrix(1 0 -0.000872834 1 1 0)"/>
</clipPath>
</defs>
</svg>
