<svg width="25" height="25" viewBox="0 0 25 25" fill="none" xmlns="http://www.w3.org/2000/svg">
<path d="M12.4995 7.49268C9.72852 7.49268 7.49219 9.729 7.49219 12.5C7.49219 15.271 9.72852 17.5073 12.4995 17.5073C15.2705 17.5073 17.5068 15.271 17.5068 12.5C17.5068 9.729 15.2705 7.49268 12.4995 7.49268ZM12.4995 15.7544C10.7075 15.7544 9.24512 14.292 9.24512 12.5C9.24512 10.708 10.7075 9.24561 12.4995 9.24561C14.2915 9.24561 15.7539 10.708 15.7539 12.5C15.7539 14.292 14.2915 15.7544 12.4995 15.7544ZM17.7119 6.12061C17.0649 6.12061 16.5425 6.64307 16.5425 7.29004C16.5425 7.93701 17.0649 8.45947 17.7119 8.45947C18.3589 8.45947 18.8813 7.93945 18.8813 7.29004C18.8789 6.64063 18.3589 6.12061 17.7119 6.12061Z" fill="white"/>
<path d="M22.2605 12.5C22.2605 11.1523 22.2727 9.81689 22.197 8.47167C22.1213 6.90917 21.7649 5.52245 20.6223 4.37988C19.4773 3.23486 18.093 2.88085 16.5305 2.80517C15.1829 2.72949 13.8474 2.74169 12.5022 2.74169C11.1545 2.74169 9.81909 2.72949 8.47387 2.80517C6.91137 2.88085 5.52465 3.2373 4.38207 4.37988C3.23705 5.5249 2.88305 6.90917 2.80737 8.47167C2.73168 9.81933 2.74389 11.1548 2.74389 12.5C2.74389 13.8452 2.73168 15.1831 2.80737 16.5283C2.88305 18.0908 3.2395 19.4775 4.38207 20.6201C5.52709 21.7651 6.91137 22.1191 8.47387 22.1948C9.82153 22.2705 11.157 22.2583 12.5022 22.2583C13.8498 22.2583 15.1853 22.2705 16.5305 22.1948C18.093 22.1191 19.4797 21.7627 20.6223 20.6201C21.7673 19.4751 22.1213 18.0908 22.197 16.5283C22.2751 15.1831 22.2605 13.8476 22.2605 12.5ZM20.1121 18.2568C19.9338 18.7012 19.719 19.0332 19.3747 19.375C19.0305 19.7192 18.7009 19.9341 18.2566 20.1123C16.9724 20.6226 13.9231 20.5078 12.4997 20.5078C11.0764 20.5078 8.02465 20.6226 6.74047 20.1147C6.29614 19.9365 5.96411 19.7217 5.62231 19.3774C5.27807 19.0332 5.06323 18.7036 4.885 18.2593C4.37719 16.9727 4.49194 13.9233 4.49194 12.5C4.49194 11.0767 4.37719 8.0249 4.885 6.74072C5.06323 6.29638 5.27807 5.96435 5.62231 5.62255C5.96655 5.28076 6.29614 5.06347 6.74047 4.88525C8.02465 4.37744 11.0764 4.49218 12.4997 4.49218C13.9231 4.49218 16.9748 4.37744 18.259 4.88525C18.7034 5.06347 19.0354 5.27831 19.3772 5.62255C19.7214 5.96679 19.9363 6.29638 20.1145 6.74072C20.6223 8.0249 20.5076 11.0767 20.5076 12.5C20.5076 13.9233 20.6223 16.9726 20.1121 18.2568Z" fill="white"/>
</svg>
