<svg width="231" height="514" viewBox="0 0 231 514" fill="none" xmlns="http://www.w3.org/2000/svg">
<g filter="url(#filter0_d_184_67)">
<path d="M13.0944 480.653L23.2848 480.89L28.9651 435.61L13.9267 435.258L13.0944 480.653Z" fill="#FFB7B7"/>
<path d="M48.0563 501.68C48.0563 503.383 46.8346 504.763 45.3276 504.763H25.1006C25.1006 504.763 23.1101 496.849 14.9945 493.444L14.4344 504.763H3.99995L5.26419 486.562C5.26419 486.562 2.47293 476.824 8.26978 471.846C14.0667 466.869 9.37141 467.562 9.37141 467.562L11.6518 456.297L27.4193 458.13L27.5353 475.814L35.1871 493.367L46.4105 498.85C47.4095 499.339 48.0561 500.451 48.0561 501.68L48.0563 501.68V501.68Z" fill="#3F3D56"/>
<path d="M96.1691 478.984L106.292 480.17L116.258 435.619L101.32 433.868L96.1691 478.984Z" fill="#FFB7B7"/>
<path d="M128.974 503.174C128.811 504.869 127.464 506.13 125.964 505.989L105.826 504.105C105.826 504.105 104.598 496.041 96.8429 491.895L95.2075 503.112L84.8195 502.14L87.8111 484.137C87.8111 484.137 85.9593 474.183 92.2044 469.767C98.4495 465.352 93.7091 465.604 93.7091 465.604L97.0519 454.601L112.575 457.896L111.007 475.512L116.953 493.699L127.605 500.204C128.553 500.783 129.091 501.95 128.974 503.174L128.974 503.174V503.174Z" fill="#3F3D56"/>
<path d="M85.7607 61.9667C86.9459 42.0751 87.5055 24.5977 81.6269 31.973C81.6269 14.3148 67.1538 0 49.3004 0C31.4469 0 16.9737 14.3148 16.9737 31.973V55.8339C16.9777 58.2032 18.9187 60.123 21.3142 60.1269L81.4182 66.2597C83.8145 66.2569 85.7567 64.3368 85.7607 61.9667V61.9667Z" fill="#3F3D56"/>
<path d="M57.2779 59.7671C44.1882 59.7671 33.5769 49.2719 33.5769 36.3253C33.5769 23.3788 44.1882 12.8835 57.2779 12.8835C70.3676 12.8835 80.9789 23.3788 80.9789 36.3253C80.9789 49.2719 70.3676 59.7671 57.2779 59.7671Z" fill="#FFB7B7"/>
<path d="M89.2741 33.8815C89.5971 17.1161 78.5358 2.67483 63.7026 8.58962H58.8774C44.7612 8.60537 33.3218 19.9197 33.3059 33.8814L41.2321 58.1389L43.5029 34.3588L46.9804 24.7272L47.6759 34.3588H52.9464C57.4854 34.4752 61.998 33.7616 66.316 32.3732C74.2118 29.8344 81.7085 32.55 89.2741 34.3588V33.8815V33.8815Z" fill="#3F3D56"/>
<path d="M43.4576 165.157L103.802 162.886C103.38 160.726 103.604 157.577 102.349 157.397C104.106 153.022 101.657 152.98 101.558 150.738C101.177 142.079 103.212 133.091 107.176 123.84C109.777 116.693 109.819 110.552 107.301 105.601C105.134 101.531 101.495 98.4198 97.1097 96.8891L83.9055 81.1154C80.4658 77.01 75.3927 68.151 70.0021 68.1845L41.0657 67.1623C40.239 66.6707 30.0784 75.3129 20.1853 79.5527C9.45503 84.1524 11.6688 96.7204 11.6957 96.8809L11.7205 97.0312L11.8383 97.1334L34.6588 116.145L41.8597 156.256C41.1374 158.327 41.3217 159.881 42.6705 160.773C40.7299 162.192 42.0629 163.674 43.4576 165.157L43.4576 165.157V165.157V165.157Z" fill="#253145"/>
<path d="M103.318 158.69L131.756 242.927L143.816 339.52L125.056 453.055L89.5834 447.246L106.92 358.05L85.7707 268.535L35.5454 446.523L6.2307 447.246L26.1875 241.847L42.099 163.244L103.318 158.69V158.69H103.318V158.69Z" fill="#3F3D56"/>
<path d="M52.3797 226.852C54.8239 233.071 60.0491 236.866 64.0506 235.328C68.0521 233.789 69.3146 227.501 66.8704 221.281C65.8005 218.559 64.1976 216.301 62.3979 214.752L51.707 188.527L39.3713 193.752L51.2197 219.049C50.9503 221.394 51.3098 224.13 52.3797 226.852V226.852Z" fill="#FFB6B6"/>
<path d="M36.9146 74.1561C36.9146 74.1561 9.78599 79.0945 11.1222 91.375C12.4584 103.655 32.0343 170.992 32.0343 170.992L44.9349 214.539L61.6965 208.946L49.2742 145.046L36.9146 74.1561V74.1561Z" fill="#253145"/>
<path d="M189.75 112.458C187.406 113.419 185.476 114.825 184.165 116.385L161.251 124.154L165.308 134.83L188.115 125.799C190.157 125.983 192.526 125.624 194.87 124.662C200.225 122.465 203.419 117.951 202.006 114.581C200.592 111.21 195.105 110.26 189.75 112.457V112.457V112.458Z" fill="#FFB6B6"/>
<path d="M59.9387 82.1038V82.1038L112.213 151.894L173.49 135.205L170.826 119.395L124.166 128.136L98.1347 88.5547C89.6347 72.3037 72.8815 69.0309 59.9387 82.1038V82.1038Z" fill="#253145"/>
</g>
<defs>
<filter id="filter0_d_184_67" x="0" y="0" width="235" height="514" filterUnits="userSpaceOnUse" color-interpolation-filters="sRGB">
<feFlood flood-opacity="0" result="BackgroundImageFix"/>
<feColorMatrix in="SourceAlpha" type="matrix" values="0 0 0 0 0 0 0 0 0 0 0 0 0 0 0 0 0 0 127 0" result="hardAlpha"/>
<feOffset dy="4"/>
<feGaussianBlur stdDeviation="2"/>
<feComposite in2="hardAlpha" operator="out"/>
<feColorMatrix type="matrix" values="0 0 0 0 0 0 0 0 0 0 0 0 0 0 0 0 0 0 0.25 0"/>
<feBlend mode="normal" in2="BackgroundImageFix" result="effect1_dropShadow_184_67"/>
<feBlend mode="normal" in="SourceGraphic" in2="effect1_dropShadow_184_67" result="shape"/>
</filter>
</defs>
</svg>
