<svg width="25" height="25" viewBox="0 0 25 25" fill="none" xmlns="http://www.w3.org/2000/svg">
<g clip-path="url(#clip0_269_75)">
<path d="M24.9764 4.74648C24.0578 5.1543 23.0697 5.43008 22.0332 5.5543C23.0907 4.91914 23.9032 3.91445 24.2864 2.7168C23.296 3.3043 22.1994 3.73164 21.0326 3.96133C20.0976 2.96445 18.766 2.3418 17.2925 2.3418C14.4624 2.3418 12.1686 4.63789 12.1686 7.4707C12.1686 7.87305 12.2139 8.26445 12.3013 8.63945C8.04293 8.42539 4.26693 6.3832 1.73971 3.28008C1.29873 4.03789 1.04585 4.91836 1.04585 5.85898C1.04585 7.63867 1.95044 9.2082 3.32566 10.1285C2.48585 10.102 1.696 9.87148 1.00449 9.48711C1.00371 9.5082 1.00371 9.53008 1.00371 9.55195C1.00371 12.0371 2.76995 14.1098 5.11376 14.5809C4.68371 14.698 4.23102 14.7605 3.76351 14.7605C3.43337 14.7605 3.11259 14.7285 2.79961 14.6684C3.45132 16.7059 5.344 18.1887 7.58634 18.2301C5.83259 19.6059 3.62302 20.4254 1.22224 20.4254C0.808585 20.4254 0.401171 20.4012 0 20.3535C2.26732 21.809 4.96078 22.6582 7.85483 22.6582C17.28 22.6582 22.4336 14.8426 22.4336 8.06445C22.4336 7.8418 22.4289 7.6207 22.4187 7.40117C23.4201 6.67773 24.2888 5.77461 24.9756 4.74648H24.9764Z" fill="#D9D9D9"/>
</g>
<defs>
<clipPath id="clip0_269_75">
<rect width="25" height="25" fill="white"/>
</clipPath>
</defs>
</svg>
